<?xml version="1.0" encoding="UTF-8"?>
<svg id="Layer_1" xmlns="http://www.w3.org/2000/svg" version="1.1" viewBox="0 0 52.8 52.8">
  <!-- Generator: Adobe Illustrator 29.3.1, SVG Export Plug-In . SVG Version: 2.1.0 Build 151)  -->
  <defs>
    <style>
      .st0 {
        fill: #1d1d1d;
      }

      .st1 {
        fill: #fff;
      }
    </style>
  </defs>
  <path class="st0" d="M52.8,26.4c0,14.6-11.8,26.4-26.4,26.4h0C11.8,52.8,0,41,0,26.4h0C0,11.8,11.8,0,26.4,0h0c14.6,0,26.4,11.8,26.4,26.4h0Z"/>
  <path class="st1" d="M37.8,15.2H15c-2.2,0-4.1,1.8-4.1,4.1v14.2c0,2.2,1.8,4.1,4.1,4.1h22.8c2.2,0,4.1-1.8,4.1-4.1v-14.2c0-2.2-1.8-4.1-4.1-4.1ZM30.1,27.4l-6.3,3.2c-.7.4-1.6-.2-1.6-1v-6.3c0-.8.9-1.4,1.6-1l6.3,3.2c.8.4.8,1.6,0,2Z"/>
</svg>