<?xml version="1.0" encoding="UTF-8"?>
<svg id="Layer_1" xmlns="http://www.w3.org/2000/svg" version="1.1" viewBox="0 0 52.2 52.2">
  <!-- Generator: Adobe Illustrator 29.3.1, SVG Export Plug-In . SVG Version: 2.1.0 Build 151)  -->
  <defs>
    <style>
      .st0 {
        fill: #1d1d1d;
      }

      .st1 {
        fill: #fff;
      }
    </style>
  </defs>
  <path class="st0" d="M52.2,26.1c0,14.4-11.7,26.1-26.1,26.1h0C11.7,52.2,0,40.5,0,26.1h0C0,11.7,11.7,0,26.1,0h0c14.4,0,26.1,11.7,26.1,26.1h0Z"/>
  <g>
    <circle class="st1" cx="16.8" cy="15.8" r="3.4"/>
    <rect class="st1" x="14" y="21.4" width="5.6" height="16.8" rx="1.9" ry="1.9"/>
    <path class="st1" d="M38.7,27.5v9.5c0,.6-.5,1.1-1.1,1.1h-3.4c-.6,0-1.1-.5-1.1-1.1v-7.8c0-1.5-1.2-2.8-2.8-2.8s-2.8,1.2-2.8,2.8v7.8c0,.6-.5,1.1-1.1,1.1h-3.4c-.6,0-1.1-.5-1.1-1.1v-14.5c0-.6.5-1.1,1.1-1.1h3.4c.6,0,1.1.5,1.1,1.1v.7c1.1-1.5,3-2.4,5-2.4,3.1,0,6.2,2.2,6.2,6.7h0Z"/>
  </g>
</svg>