<?xml version="1.0" encoding="UTF-8"?>
<svg id="Layer_1" xmlns="http://www.w3.org/2000/svg" version="1.1" viewBox="0 0 51.7 51.7">
  <!-- Generator: Adobe Illustrator 29.3.1, SVG Export Plug-In . SVG Version: 2.1.0 Build 151)  -->
  <defs>
    <style>
      .st0 {
        fill: #1d1d1d;
      }

      .st1 {
        fill: #fff;
      }
    </style>
  </defs>
  <path class="st0" d="M51.7,25.8c0,14.3-11.6,25.8-25.8,25.8h0c-14.3,0-25.8-11.6-25.8-25.8h0C0,11.6,11.6,0,25.8,0h0c14.3,0,25.8,11.6,25.8,25.8h0Z"/>
  <path class="st1" d="M32.8,12.3h-14c-3.6,0-6.5,2.9-6.5,6.5v14c0,3.6,2.9,6.5,6.5,6.5h14c3.6,0,6.5-2.9,6.5-6.5v-14c0-3.6-2.9-6.5-6.5-6.5ZM37,32.4c0,2.6-2.1,4.7-4.7,4.7h-13.1c-2.6,0-4.7-2.1-4.7-4.7v-13.1c0-2.6,2.1-4.7,4.7-4.7h13.1c2.6,0,4.7,2.1,4.7,4.7,0,0,0,13.1,0,13.1Z"/>
  <path class="st1" d="M25.9,18.8c-3.9,0-7,3.1-7,7s3.1,7,7,7,7-3.1,7-7-3.1-7-7-7ZM25.9,30.5c-2.6,0-4.7-2.1-4.7-4.7s2.1-4.7,4.7-4.7,4.7,2.1,4.7,4.7-2.1,4.7-4.7,4.7Z"/>
  <circle class="st1" cx="33.3" cy="18.4" r="1.4"/>
</svg>